<mxfile host="app.diagrams.net" modified="2023-01-29T15:22:50.057Z" agent="5.0 (Windows NT 10.0; Win64; x64) AppleWebKit/537.36 (KHTML, like Gecko) Chrome/109.0.0.0 Safari/537.36 Edg/109.0.1518.70" etag="q2YI0S234Oc3loem0ag5" version="20.8.13" type="github">
  <diagram name="第 1 页" id="xoaxoxbruZANcRrK3hBC">
    <mxGraphModel dx="1195" dy="-512" grid="1" gridSize="10" guides="1" tooltips="1" connect="1" arrows="1" fold="1" page="1" pageScale="1" pageWidth="827" pageHeight="1169" math="0" shadow="0">
      <root>
        <mxCell id="0" />
        <mxCell id="1" parent="0" />
        <mxCell id="nhiDoFrihD8EbAkgMuqm-1" value="" style="group" vertex="1" connectable="0" parent="1">
          <mxGeometry x="40" y="1310" width="770" height="310" as="geometry" />
        </mxCell>
        <mxCell id="nhiDoFrihD8EbAkgMuqm-2" value="&lt;font style=&quot;font-size: 12px;&quot;&gt;请求&lt;/font&gt;" style="rounded=1;whiteSpace=wrap;html=1;fontSize=16;fillColor=#fff2cc;strokeColor=#d6b656;" vertex="1" parent="nhiDoFrihD8EbAkgMuqm-1">
          <mxGeometry x="280" width="120" height="55" as="geometry" />
        </mxCell>
        <mxCell id="nhiDoFrihD8EbAkgMuqm-3" value="&lt;font style=&quot;font-size: 12px;&quot;&gt;缓存&lt;/font&gt;" style="rounded=1;whiteSpace=wrap;html=1;fontSize=12;fillColor=#f8cecc;strokeColor=#b85450;" vertex="1" parent="nhiDoFrihD8EbAkgMuqm-1">
          <mxGeometry y="100" width="120" height="60" as="geometry" />
        </mxCell>
        <mxCell id="nhiDoFrihD8EbAkgMuqm-4" value="&lt;font style=&quot;font-size: 12px;&quot;&gt;缓存&lt;/font&gt;" style="rounded=1;whiteSpace=wrap;html=1;fontSize=12;fillColor=#d5e8d4;strokeColor=#82b366;" vertex="1" parent="nhiDoFrihD8EbAkgMuqm-1">
          <mxGeometry x="650" y="100" width="120" height="60" as="geometry" />
        </mxCell>
        <mxCell id="nhiDoFrihD8EbAkgMuqm-5" value="" style="edgeStyle=orthogonalEdgeStyle;rounded=0;orthogonalLoop=1;jettySize=auto;html=1;strokeColor=#009900;strokeWidth=2;fontSize=12;endArrow=classic;endFill=1;" edge="1" parent="nhiDoFrihD8EbAkgMuqm-1" source="nhiDoFrihD8EbAkgMuqm-6" target="nhiDoFrihD8EbAkgMuqm-4">
          <mxGeometry relative="1" as="geometry" />
        </mxCell>
        <mxCell id="nhiDoFrihD8EbAkgMuqm-6" value="&lt;font style=&quot;font-size: 12px;&quot;&gt;定时任务&lt;/font&gt;" style="rounded=1;whiteSpace=wrap;html=1;fontSize=12;fillColor=#d5e8d4;strokeColor=#82b366;" vertex="1" parent="nhiDoFrihD8EbAkgMuqm-1">
          <mxGeometry x="490" y="100" width="70" height="60" as="geometry" />
        </mxCell>
        <mxCell id="nhiDoFrihD8EbAkgMuqm-7" value="" style="endArrow=classic;html=1;rounded=0;fontSize=12;exitX=0.25;exitY=1;exitDx=0;exitDy=0;entryX=0.5;entryY=0;entryDx=0;entryDy=0;strokeColor=#FF0000;strokeWidth=2;endFill=1;" edge="1" parent="nhiDoFrihD8EbAkgMuqm-1" source="nhiDoFrihD8EbAkgMuqm-2" target="nhiDoFrihD8EbAkgMuqm-3">
          <mxGeometry width="50" height="50" relative="1" as="geometry">
            <mxPoint x="290" y="190" as="sourcePoint" />
            <mxPoint x="340" y="140" as="targetPoint" />
            <Array as="points">
              <mxPoint x="310" y="70" />
              <mxPoint x="60" y="70" />
            </Array>
          </mxGeometry>
        </mxCell>
        <mxCell id="nhiDoFrihD8EbAkgMuqm-8" value="" style="endArrow=classic;html=1;rounded=0;strokeColor=#009900;strokeWidth=2;fontSize=12;exitX=0.75;exitY=1;exitDx=0;exitDy=0;entryX=0.5;entryY=0;entryDx=0;entryDy=0;" edge="1" parent="nhiDoFrihD8EbAkgMuqm-1" source="nhiDoFrihD8EbAkgMuqm-2" target="nhiDoFrihD8EbAkgMuqm-4">
          <mxGeometry width="50" height="50" relative="1" as="geometry">
            <mxPoint x="290" y="190" as="sourcePoint" />
            <mxPoint x="340" y="140" as="targetPoint" />
            <Array as="points">
              <mxPoint x="370" y="70" />
              <mxPoint x="710" y="70" />
            </Array>
          </mxGeometry>
        </mxCell>
        <mxCell id="nhiDoFrihD8EbAkgMuqm-9" value="" style="endArrow=classic;html=1;rounded=0;strokeColor=#FF0000;strokeWidth=2;fontSize=12;exitX=0.5;exitY=1;exitDx=0;exitDy=0;entryX=0;entryY=0.5;entryDx=0;entryDy=0;" edge="1" parent="nhiDoFrihD8EbAkgMuqm-1" source="nhiDoFrihD8EbAkgMuqm-3" target="nhiDoFrihD8EbAkgMuqm-15">
          <mxGeometry width="50" height="50" relative="1" as="geometry">
            <mxPoint x="360" y="200" as="sourcePoint" />
            <mxPoint x="210" y="270" as="targetPoint" />
            <Array as="points">
              <mxPoint x="60" y="280" />
            </Array>
          </mxGeometry>
        </mxCell>
        <mxCell id="nhiDoFrihD8EbAkgMuqm-10" value="优化前" style="text;html=1;strokeColor=none;fillColor=none;align=center;verticalAlign=middle;whiteSpace=wrap;rounded=0;dashed=1;fontSize=14;fontColor=#FF6666;fontStyle=1" vertex="1" parent="nhiDoFrihD8EbAkgMuqm-1">
          <mxGeometry x="140" y="40" width="60" height="30" as="geometry" />
        </mxCell>
        <mxCell id="nhiDoFrihD8EbAkgMuqm-11" value="优化后" style="text;html=1;strokeColor=none;fillColor=none;align=center;verticalAlign=middle;whiteSpace=wrap;rounded=0;dashed=1;fontSize=14;fontColor=#009900;fontStyle=1" vertex="1" parent="nhiDoFrihD8EbAkgMuqm-1">
          <mxGeometry x="495" y="40" width="60" height="30" as="geometry" />
        </mxCell>
        <mxCell id="nhiDoFrihD8EbAkgMuqm-12" value="&lt;font style=&quot;font-size: 12px;&quot;&gt;DB&lt;/font&gt;" style="rounded=1;whiteSpace=wrap;html=1;fontSize=12;fillColor=#dae8fc;strokeColor=#6c8ebf;" vertex="1" parent="nhiDoFrihD8EbAkgMuqm-1">
          <mxGeometry x="280" y="100" width="120" height="60" as="geometry" />
        </mxCell>
        <mxCell id="nhiDoFrihD8EbAkgMuqm-15" value="请求上游服务" style="rounded=1;whiteSpace=wrap;html=1;fontSize=12;fillColor=#dae8fc;strokeColor=#6c8ebf;" vertex="1" parent="nhiDoFrihD8EbAkgMuqm-1">
          <mxGeometry x="280" y="250" width="120" height="60" as="geometry" />
        </mxCell>
        <mxCell id="nhiDoFrihD8EbAkgMuqm-16" value="&lt;font style=&quot;font-size: 12px;&quot;&gt;条件过滤&lt;/font&gt;" style="rounded=1;whiteSpace=wrap;html=1;fontSize=12;fillColor=#d5e8d4;strokeColor=#82b366;" vertex="1" parent="nhiDoFrihD8EbAkgMuqm-1">
          <mxGeometry x="650" y="200" width="120" height="60" as="geometry" />
        </mxCell>
        <mxCell id="nhiDoFrihD8EbAkgMuqm-17" value="" style="edgeStyle=orthogonalEdgeStyle;rounded=0;orthogonalLoop=1;jettySize=auto;html=1;" edge="1" parent="nhiDoFrihD8EbAkgMuqm-1" source="nhiDoFrihD8EbAkgMuqm-4" target="nhiDoFrihD8EbAkgMuqm-16">
          <mxGeometry relative="1" as="geometry" />
        </mxCell>
        <mxCell id="nhiDoFrihD8EbAkgMuqm-18" value="" style="endArrow=classic;html=1;rounded=0;strokeColor=#009900;strokeWidth=2;fontSize=12;entryX=1;entryY=0.5;entryDx=0;entryDy=0;" edge="1" parent="nhiDoFrihD8EbAkgMuqm-1">
          <mxGeometry width="50" height="50" relative="1" as="geometry">
            <mxPoint x="710" y="260" as="sourcePoint" />
            <mxPoint x="400.0000000000002" y="280" as="targetPoint" />
            <Array as="points">
              <mxPoint x="710" y="280" />
            </Array>
          </mxGeometry>
        </mxCell>
        <mxCell id="nhiDoFrihD8EbAkgMuqm-21" value="" style="endArrow=classic;html=1;rounded=0;exitX=1;exitY=0.5;exitDx=0;exitDy=0;entryX=0;entryY=0.5;entryDx=0;entryDy=0;strokeWidth=2;strokeColor=#FF0000;" edge="1" parent="nhiDoFrihD8EbAkgMuqm-1" source="nhiDoFrihD8EbAkgMuqm-3" target="nhiDoFrihD8EbAkgMuqm-12">
          <mxGeometry width="50" height="50" relative="1" as="geometry">
            <mxPoint x="350" y="300" as="sourcePoint" />
            <mxPoint x="400" y="250" as="targetPoint" />
          </mxGeometry>
        </mxCell>
        <mxCell id="nhiDoFrihD8EbAkgMuqm-22" value="更新" style="text;html=1;strokeColor=none;fillColor=none;align=center;verticalAlign=middle;whiteSpace=wrap;rounded=0;" vertex="1" parent="nhiDoFrihD8EbAkgMuqm-1">
          <mxGeometry x="560" y="100" width="60" height="30" as="geometry" />
        </mxCell>
        <mxCell id="nhiDoFrihD8EbAkgMuqm-23" value="" style="endArrow=classic;html=1;rounded=0;exitX=0;exitY=0.5;exitDx=0;exitDy=0;entryX=1;entryY=0.5;entryDx=0;entryDy=0;strokeWidth=2;strokeColor=#009900;" edge="1" parent="nhiDoFrihD8EbAkgMuqm-1" source="nhiDoFrihD8EbAkgMuqm-6" target="nhiDoFrihD8EbAkgMuqm-12">
          <mxGeometry width="50" height="50" relative="1" as="geometry">
            <mxPoint x="480" y="130" as="sourcePoint" />
            <mxPoint x="400" y="250" as="targetPoint" />
          </mxGeometry>
        </mxCell>
        <mxCell id="nhiDoFrihD8EbAkgMuqm-24" value="查询数据" style="text;html=1;strokeColor=none;fillColor=none;align=center;verticalAlign=middle;whiteSpace=wrap;rounded=0;" vertex="1" parent="nhiDoFrihD8EbAkgMuqm-1">
          <mxGeometry x="415" y="100" width="60" height="30" as="geometry" />
        </mxCell>
        <mxCell id="nhiDoFrihD8EbAkgMuqm-47" value="缓存失效，回源查询" style="text;html=1;strokeColor=none;fillColor=none;align=center;verticalAlign=middle;whiteSpace=wrap;rounded=0;" vertex="1" parent="nhiDoFrihD8EbAkgMuqm-1">
          <mxGeometry x="140" y="100" width="110" height="30" as="geometry" />
        </mxCell>
        <mxCell id="nhiDoFrihD8EbAkgMuqm-55" value="响应" style="rounded=1;whiteSpace=wrap;html=1;fontSize=12;fillColor=#f5f5f5;fontColor=#333333;strokeColor=#666666;" vertex="1" parent="1">
          <mxGeometry x="320" y="1670" width="120" height="60" as="geometry" />
        </mxCell>
        <mxCell id="nhiDoFrihD8EbAkgMuqm-56" value="" style="edgeStyle=orthogonalEdgeStyle;rounded=0;orthogonalLoop=1;jettySize=auto;html=1;strokeColor=#000000;strokeWidth=2;fontColor=#000000;" edge="1" parent="1" source="nhiDoFrihD8EbAkgMuqm-15" target="nhiDoFrihD8EbAkgMuqm-55">
          <mxGeometry relative="1" as="geometry" />
        </mxCell>
        <mxCell id="nhiDoFrihD8EbAkgMuqm-57" value="&lt;p style=&quot;line-height: 50%; font-size: 13px;&quot;&gt;&lt;font color=&quot;#ff0000&quot; style=&quot;font-size: 13px;&quot;&gt;①. key = 版本+分页+长度&lt;/font&gt;&lt;/p&gt;&lt;p style=&quot;line-height: 50%; font-size: 13px;&quot;&gt;&lt;font color=&quot;#ff0000&quot; style=&quot;font-size: 13px;&quot;&gt;&lt;span style=&quot;font-size: 13px;&quot;&gt;②. 生成的缓存仅满足当前请求条件&lt;/span&gt;&lt;/font&gt;&lt;/p&gt;&lt;p style=&quot;line-height: 50%; font-size: 13px;&quot;&gt;&lt;/p&gt;&lt;p style=&quot;line-height: 50%; font-size: 13px;&quot;&gt;&lt;font color=&quot;#ff0000&quot; style=&quot;font-size: 13px;&quot;&gt;&lt;span style=&quot;font-size: 13px;&quot;&gt;③. 上游服务不可用，回5xx&lt;/span&gt;&lt;/font&gt;&lt;/p&gt;" style="text;html=1;strokeColor=none;fillColor=none;align=left;verticalAlign=middle;whiteSpace=wrap;rounded=0;fontSize=13;" vertex="1" parent="1">
          <mxGeometry x="120" y="1470" width="210" height="90" as="geometry" />
        </mxCell>
        <mxCell id="nhiDoFrihD8EbAkgMuqm-58" value="&lt;p style=&quot;line-height: 50%; font-size: 13px;&quot;&gt;&lt;font style=&quot;font-size: 13px;&quot;&gt;①. 定期生成完整详情和兜底数据&lt;/font&gt;&lt;/p&gt;&lt;p style=&quot;line-height: 50%; font-size: 13px;&quot;&gt;&lt;font style=&quot;font-size: 13px;&quot;&gt;②. 实时根据参数过滤&lt;/font&gt;&lt;/p&gt;&lt;p style=&quot;line-height: 50%; font-size: 13px;&quot;&gt;&lt;font style=&quot;font-size: 13px;&quot;&gt;③. 返回符合条件的详情&lt;/font&gt;&lt;/p&gt;&lt;p style=&quot;line-height: 50%; font-size: 13px;&quot;&gt;&lt;font style=&quot;font-size: 13px;&quot;&gt;④.上游服务不可用，降级&lt;/font&gt;&lt;/p&gt;" style="text;html=1;strokeColor=none;fillColor=none;align=left;verticalAlign=middle;whiteSpace=wrap;rounded=0;fontColor=#009900;" vertex="1" parent="1">
          <mxGeometry x="440" y="1470" width="230" height="110" as="geometry" />
        </mxCell>
      </root>
    </mxGraphModel>
  </diagram>
</mxfile>
